<svg xmlns="http://www.w3.org/2000/svg" version="1.1" xmlns:xlink="http://www.w3.org/1999/xlink" xmlns:svgjs="http://svgjs.dev/svgjs" width="1000" height="623" viewBox="0 0 1000 623"><g transform="matrix(1,0,0,1,-0.6060606060606233,0.2522267206477409)"><svg viewBox="0 0 396 247" data-background-color="#ffffff" preserveAspectRatio="xMidYMid meet" height="623" width="1000" xmlns="http://www.w3.org/2000/svg" xmlns:xlink="http://www.w3.org/1999/xlink"><g id="tight-bounds" transform="matrix(1,0,0,1,0.2400000000000091,-0.09999999999999432)"><svg viewBox="0 0 395.52 247.2" height="247.2" width="395.52"><g><svg></svg></g><g><svg viewBox="0 0 395.52 247.2" height="247.2" width="395.52"><g transform="matrix(1,0,0,1,39.55199999999999,101.26704232689386)"><svg viewBox="0 0 316.416 44.66591534621229" height="44.66591534621229" width="316.416"><g><svg viewBox="0 0 316.416 44.66591534621229" height="44.66591534621229" width="316.416"><g><svg viewBox="0 0 316.416 44.66591534621229" height="44.66591534621229" width="316.416"><g><svg viewBox="0 0 316.416 44.66591534621229" height="44.66591534621229" width="316.416"><g><svg viewBox="0 0 316.416 44.66591534621229" height="44.66591534621229" width="316.416"><g><svg viewBox="0 0 316.416 44.66591534621229" height="44.66591534621229" width="316.416"><g transform="matrix(1,0,0,1,0,0)"><svg width="316.416" viewBox="2.56 -37.23 337.4 47.629999999999995" height="44.66591534621229" data-palette-color="#ee0d73"><path d="M22-35.55L30.57-35.55 30.57-12.28Q30.57-8.33 28.88-5.43 27.2-2.54 24.05-1.03 20.9 0.49 16.6 0.49L16.6 0.49Q10.11 0.49 6.37-2.88 2.64-6.25 2.56-12.11L2.56-12.11 2.56-35.55 11.18-35.55 11.18-11.94Q11.33-6.1 16.6-6.1L16.6-6.1Q19.26-6.1 20.63-7.57 22-9.03 22-12.33L22-12.33 22-35.55ZM51.66-26.61L51.51-18.97 48.8-19.17Q44.92-19.17 43.82-16.72L43.82-16.72 43.82 0 35.59 0 35.59-26.42 43.31-26.42 43.58-23.02Q45.65-26.9 49.36-26.9L49.36-26.9Q50.68-26.9 51.66-26.61L51.66-26.61ZM66.79 0.49L66.79 0.49Q60.71 0.49 56.95-3.14 53.19-6.76 53.19-12.57L53.19-12.57 53.19-13.26Q53.19-17.31 54.69-20.41 56.2-23.51 59.08-25.21 61.96-26.9 65.91-26.9L65.91-26.9Q71.48-26.9 74.7-23.45 77.92-20 77.92-13.82L77.92-13.82 77.92-10.62 61.57-10.62Q62.01-8.4 63.5-7.13 64.99-5.86 67.35-5.86L67.35-5.86Q71.26-5.86 73.46-8.59L73.46-8.59 77.22-4.15Q75.68-2.03 72.86-0.77 70.04 0.49 66.79 0.49ZM65.86-20.56L65.86-20.56Q62.25-20.56 61.57-15.77L61.57-15.77 69.87-15.77 69.87-16.41Q69.92-18.38 68.87-19.47 67.82-20.56 65.86-20.56ZM81.07-26.42L88.79-26.42 89.06-23.32Q91.79-26.9 96.6-26.9L96.6-26.9Q100.72-26.9 102.76-24.44 104.8-21.97 104.88-17.02L104.88-17.02 104.88 0 96.62 0 96.62-16.67Q96.62-18.68 95.82-19.62 95.01-20.56 92.89-20.56L92.89-20.56Q90.47-20.56 89.3-18.65L89.3-18.65 89.3 0 81.07 0 81.07-26.42ZM125.55-26.61L125.41-18.97 122.7-19.17Q118.81-19.17 117.71-16.72L117.71-16.72 117.71 0 109.49 0 109.49-26.42 117.2-26.42 117.47-23.02Q119.55-26.9 123.26-26.9L123.26-26.9Q124.57-26.9 125.55-26.61L125.55-26.61ZM140.69 0.49L140.69 0.49Q134.61 0.49 130.85-3.14 127.09-6.76 127.09-12.57L127.09-12.57 127.09-13.26Q127.09-17.31 128.59-20.41 130.09-23.51 132.97-25.21 135.85-26.9 139.81-26.9L139.81-26.9Q145.37-26.9 148.6-23.45 151.82-20 151.82-13.82L151.82-13.82 151.82-10.62 135.46-10.62Q135.9-8.4 137.39-7.13 138.88-5.86 141.25-5.86L141.25-5.86Q145.15-5.86 147.35-8.59L147.35-8.59 151.11-4.15Q149.57-2.03 146.75-0.77 143.93 0.49 140.69 0.49ZM139.76-20.56L139.76-20.56Q136.14-20.56 135.46-15.77L135.46-15.77 143.76-15.77 143.76-16.41Q143.81-18.38 142.76-19.47 141.71-20.56 139.76-20.56ZM154.16-13.11L154.16-13.4Q154.16-17.41 155.48-20.48 156.8-23.56 159.26-25.23 161.73-26.9 165-26.9L165-26.9Q169.13-26.9 171.44-24.12L171.44-24.12 171.74-26.42 179.21-26.42 179.21-1Q179.21 2.49 177.59 5.07 175.96 7.64 172.89 9.02 169.81 10.4 165.76 10.4L165.76 10.4Q162.85 10.4 160.13 9.3 157.41 8.2 155.97 6.45L155.97 6.45 159.41 1.61Q161.7 4.32 165.46 4.32L165.46 4.32Q170.93 4.32 170.93-1.29L170.93-1.29 170.93-2.12Q168.56 0.49 164.95 0.49L164.95 0.49Q160.12 0.49 157.14-3.21 154.16-6.91 154.16-13.11L154.16-13.11ZM162.41-12.89L162.41-12.89Q162.41-9.64 163.63-7.75 164.85-5.86 167.05-5.86L167.05-5.86Q169.71-5.86 170.93-7.64L170.93-7.64 170.93-18.75Q169.74-20.56 167.1-20.56L167.1-20.56Q164.9-20.56 163.66-18.59 162.41-16.63 162.41-12.89ZM192.56-26.42L192.56 0 184.31 0 184.31-26.42 192.56-26.42ZM183.82-33.23L183.82-33.23Q183.82-34.99 185.09-36.11 186.36-37.23 188.39-37.23 190.41-37.23 191.68-36.11 192.95-34.99 192.95-33.23 192.95-31.47 191.68-30.35 190.41-29.22 188.39-29.22 186.36-29.22 185.09-30.35 183.82-31.47 183.82-33.23ZM211.45-7.42L211.45-7.42Q211.45-8.47 210.36-9.11 209.26-9.74 206.18-10.42 203.11-11.11 201.1-12.22 199.1-13.33 198.05-14.92 197-16.5 197-18.55L197-18.55Q197-22.19 200-24.55 203.01-26.9 207.87-26.9L207.87-26.9Q213.09-26.9 216.26-24.54 219.44-22.17 219.44-18.31L219.44-18.31 211.19-18.31Q211.19-21.48 207.84-21.48L207.84-21.48Q206.55-21.48 205.67-20.76 204.79-20.04 204.79-18.97L204.79-18.97Q204.79-17.87 205.86-17.19 206.94-16.5 209.29-16.06 211.65-15.63 213.43-15.01L213.43-15.01Q219.39-12.96 219.39-7.67L219.39-7.67Q219.39-4.05 216.18-1.78 212.97 0.49 207.87 0.49L207.87 0.49Q204.47 0.49 201.81-0.73 199.15-1.95 197.66-4.05 196.17-6.15 196.17-8.47L196.17-8.47 203.86-8.47Q203.91-6.64 205.08-5.8 206.25-4.96 208.09-4.96L208.09-4.96Q209.77-4.96 210.61-5.64 211.45-6.32 211.45-7.42ZM224.59-32.98L232.81-32.98 232.81-26.42 237.16-26.42 237.16-20.7 232.81-20.7 232.81-8.62Q232.81-7.13 233.35-6.54 233.89-5.96 235.48-5.96L235.48-5.96Q236.7-5.96 237.53-6.1L237.53-6.1 237.53-0.22Q235.3 0.49 232.89 0.49L232.89 0.49Q228.64 0.49 226.61-1.51 224.59-3.52 224.59-7.59L224.59-7.59 224.59-20.7 221.22-20.7 221.22-26.42 224.59-26.42 224.59-32.98ZM256.52-26.61L256.37-18.97 253.66-19.17Q249.78-19.17 248.68-16.72L248.68-16.72 248.68 0 240.45 0 240.45-26.42 248.17-26.42 248.44-23.02Q250.51-26.9 254.22-26.9L254.22-26.9Q255.54-26.9 256.52-26.61L256.52-26.61ZM281.71 0L273.48 0Q273.04-0.81 272.7-2.37L272.7-2.37Q270.43 0.49 266.35 0.49L266.35 0.49Q262.62 0.49 260.01-1.77 257.39-4.03 257.39-7.45L257.39-7.45Q257.39-11.74 260.57-13.94 263.74-16.14 269.8-16.14L269.8-16.14 272.34-16.14 272.34-17.53Q272.34-21.17 269.19-21.17L269.19-21.17Q266.26-21.17 266.26-18.29L266.26-18.29 258.03-18.29Q258.03-22.12 261.29-24.51 264.55-26.9 269.6-26.9 274.66-26.9 277.58-24.44 280.51-21.97 280.59-17.68L280.59-17.68 280.59-5.98Q280.64-2.34 281.71-0.42L281.71-0.42 281.71 0ZM268.33-5.37L268.33-5.37Q269.87-5.37 270.88-6.03 271.9-6.69 272.34-7.52L272.34-7.52 272.34-11.74 269.94-11.74Q265.65-11.74 265.65-7.89L265.65-7.89Q265.65-6.76 266.4-6.07 267.16-5.37 268.33-5.37ZM286.49-32.98L294.72-32.98 294.72-26.42 299.07-26.42 299.07-20.7 294.72-20.7 294.72-8.62Q294.72-7.13 295.26-6.54 295.8-5.96 297.38-5.96L297.38-5.96Q298.6-5.96 299.43-6.1L299.43-6.1 299.43-0.22Q297.21 0.49 294.79 0.49L294.79 0.49Q290.55 0.49 288.52-1.51 286.49-3.52 286.49-7.59L286.49-7.59 286.49-20.7 283.12-20.7 283.12-26.42 286.49-26.42 286.49-32.98ZM310.98-26.42L310.98 0 302.73 0 302.73-26.42 310.98-26.42ZM302.24-33.23L302.24-33.23Q302.24-34.99 303.51-36.11 304.78-37.23 306.8-37.23 308.83-37.23 310.1-36.11 311.37-34.99 311.37-33.23 311.37-31.47 310.1-30.35 308.83-29.22 306.8-29.22 304.78-29.22 303.51-30.35 302.24-31.47 302.24-33.23ZM328.82 0.49L328.82 0.49Q322.74 0.49 318.98-3.14 315.22-6.76 315.22-12.57L315.22-12.57 315.22-13.26Q315.22-17.31 316.73-20.41 318.23-23.51 321.11-25.21 323.99-26.9 327.94-26.9L327.94-26.9Q333.51-26.9 336.73-23.45 339.96-20 339.96-13.82L339.96-13.82 339.96-10.62 323.6-10.62Q324.04-8.4 325.53-7.13 327.02-5.86 329.38-5.86L329.38-5.86Q333.29-5.86 335.49-8.59L335.49-8.59 339.25-4.15Q337.71-2.03 334.89-0.77 332.07 0.49 328.82 0.49ZM327.89-20.56L327.89-20.56Q324.28-20.56 323.6-15.77L323.6-15.77 331.9-15.77 331.9-16.41Q331.95-18.38 330.9-19.47 329.85-20.56 327.89-20.56Z" opacity="1" transform="matrix(1,0,0,1,0,0)" fill="#ee0d73" class="undefined-text-0" data-fill-palette-color="primary" id="text-0"></path></svg></g></svg></g></svg></g></svg></g></svg></g></svg></g></svg></g><g mask="url(#7320d7cd-8427-4756-8877-f8be99d16ca7)"><g transform="matrix(3.0123960342518763, 0, 0, 3.0123960342518763, 61.72659643475802, 1)"><svg xmlns="http://www.w3.org/2000/svg" xmlns:xlink="http://www.w3.org/1999/xlink" version="1.1" x="0" y="0" viewBox="5.003250000000008 8.908 90.31575000000001 81.397" enable-background="new 0 0 100 100" xml:space="preserve" height="81.397" width="90.31575000000001" class="icon-none" data-fill-palette-color="accent" id="none"><path d="M54.621 8.908c-1.974 0-3.575 1.602-3.575 3.578 0 1.976 1.602 3.578 3.575 3.578 18.493 0 33.54 15.047 33.54 33.543 0 18.495-15.047 33.542-33.54 33.542-16.971 0-31.03-12.676-33.23-29.056l2.504 2.505c0.699 0.699 1.614 1.047 2.53 1.047 0.916 0 1.831-0.348 2.53-1.047 1.397-1.398 1.397-3.663 0-5.061l-8.922-8.922c-1.397-1.397-3.663-1.397-5.06 0l-8.922 8.922c-1.397 1.397-1.397 3.662 0 5.061 1.397 1.396 3.663 1.396 5.061 0l3.012-3.012c2.007 20.579 19.403 36.719 40.498 36.719 22.439 0 40.697-18.258 40.697-40.698C95.318 27.166 77.061 8.908 54.621 8.908z" fill="#a5104c" data-fill-palette-color="accent"></path><path d="M41.141 69.414c-0.971 0-1.941-0.369-2.682-1.11-1.481-1.481-1.482-3.883-0.001-5.364l11.856-11.86V27.108c0-2.095 1.698-3.793 3.791-3.793 2.094 0 3.79 1.698 3.79 3.793v25.541c0 1.006-0.398 1.97-1.109 2.682L43.823 68.303C43.083 69.043 42.112 69.414 41.141 69.414z" fill="#a5104c" data-fill-palette-color="accent"></path><path d="M81.644 51.94h-3.926c-1.381 0-2.5-1.119-2.5-2.5s1.119-2.5 2.5-2.5h3.926c1.381 0 2.5 1.119 2.5 2.5S83.024 51.94 81.644 51.94z" fill="#a5104c" data-fill-palette-color="accent"></path><path d="M72.316 71.539c-0.64 0-1.279-0.244-1.768-0.732l-2.776-2.776c-0.977-0.977-0.977-2.559 0-3.535s2.559-0.977 3.535 0l2.776 2.776c0.977 0.977 0.977 2.559 0 3.535C73.596 71.295 72.956 71.539 72.316 71.539z" fill="#a5104c" data-fill-palette-color="accent"></path><path d="M52.719 79.657c-1.381 0-2.5-1.119-2.5-2.5V73.23c0-1.381 1.119-2.5 2.5-2.5s2.5 1.119 2.5 2.5v3.927C55.219 78.538 54.1 79.657 52.719 79.657z" fill="#a5104c" data-fill-palette-color="accent"></path><path d="M69.541 35.117c-0.64 0-1.279-0.244-1.768-0.732-0.977-0.977-0.977-2.559 0-3.536l2.775-2.776c0.975-0.977 2.559-0.976 3.535 0 0.977 0.977 0.977 2.559 0 3.536l-2.775 2.776C70.821 34.873 70.181 35.117 69.541 35.117z" fill="#a5104c" data-fill-palette-color="accent"></path></svg></g></g></svg></g><defs><mask id="7320d7cd-8427-4756-8877-f8be99d16ca7"><rect width="640" height="400" fill="white"></rect><rect width="348.05760000000004" height="65.75501660875712" fill="black" x="145.97119999999998" y="167.12249169562145" id="transform-me" transform="matrix(1,0,0,1,-122.24000000000001,-76.4)"></rect></mask></defs></svg><rect width="395.52" height="247.2" fill="none" stroke="none" visibility="hidden"></rect></g></svg></g></svg>